# xmcd
#
# Track frame offsets:
#	150
#	18275
#	36492
#	52138
#	66928
#	82947
#	99215
#	114444
#	131493
#	152134
#	167906
#	180570
#	196386
#	211268
#	228198
#	248891
#	266235
#	283512
#	302954
#
# Disc length: 4240 seconds
#
# Revision: 1
# Processed by: cddbd v1.5.2PL0 Copyright (c) Steve Scherf et al.
# Submitted via: audiograbber 1.83.01
#
DISCID=0a108e13
DTITLE=Various Artist - Now Big Hit 2004 2-2 
DYEAR=2004
DGENRE=Pop
TTITLE0=Te Black Eyed Peas - Shut Up
TTITLE1=Maroon 5 - This Love
TTITLE2=Westlife - Mandy
TTITLE3=Kelis - Trick Me
TTITLE4=Maria Mena - You Are The Only One
TTITLE5=Beyoncé - Naughty Girl
TTITLE6=3 Doors Down - Here Without You
TTITLE7=Safri Duo feat. Clark Anderson - All The People In the World
TTITLE8=Nik and Jay - Pop-Pop
TTITLE9=Bomba y Rockers - Rock The Party
TTITLE10=Arvil Lavigne - Don´t Tell Me
TTITLE11=Jokeren - Det Kunne Ha Været Dig
TTITLE12=Anastacia - Left Outside Alone
TTITLE13=Usher - Burn
TTITLE14=Tue West - Hun Er Fri (Kvinden and Lottokuglerne)
TTITLE15=Scissor Sisters - Take Your Mama
TTITLE16=Frankee - F.U Right Back
TTITLE17=Bent Fabric feat. Peter Frödin - Everytime
TTITLE18=Kanye West - Through The Wire
EXTD=
EXTT0=
EXTT1=
EXTT2=
EXTT3=
EXTT4=
EXTT5=
EXTT6=
EXTT7=
EXTT8=
EXTT9=
EXTT10=
EXTT11=
EXTT12=
EXTT13=
EXTT14=
EXTT15=
EXTT16=
EXTT17=
EXTT18=
PLAYORDER=
